<svg xmlns="http://www.w3.org/2000/svg" viewBox="0 0 960 420" width="960" height="420">
  <style>
    text { font-family: "Inter", -apple-system, "PingFang SC", sans-serif; fill: #f0f6fc; }
  </style>
  <defs>
    <linearGradient id="bg" x1="0%" y1="0%" x2="100%" y2="100%">
      <stop offset="0%"   stop-color="#0a0018"/>
      <stop offset="50%"  stop-color="#12021f"/>
      <stop offset="100%" stop-color="#06000f"/>
    </linearGradient>
    <radialGradient id="glow-p1" cx="50%" cy="50%" r="45%">
      <stop offset="0%"   stop-color="rgba(168,85,247,0.22)"/>
      <stop offset="100%" stop-color="rgba(168,85,247,0)"/>
    </radialGradient>
    <radialGradient id="glow-b1" cx="22%" cy="78%" r="38%">
      <stop offset="0%"   stop-color="rgba(59,130,246,0.14)"/>
      <stop offset="100%" stop-color="rgba(59,130,246,0)"/>
    </radialGradient>
    <linearGradient id="gw" x1="0%" y1="0%" x2="100%" y2="100%">
      <stop offset="0%"   stop-color="#c084fc"/>
      <stop offset="100%" stop-color="#7c3aed"/>
    </linearGradient>
    <radialGradient id="gw-halo" cx="50%" cy="50%" r="50%">
      <stop offset="0%"   stop-color="rgba(192,132,252,0.55)"/>
      <stop offset="60%"  stop-color="rgba(124,58,237,0.18)"/>
      <stop offset="100%" stop-color="rgba(124,58,237,0)"/>
    </radialGradient>
    <linearGradient id="chip" x1="0%" y1="0%" x2="0%" y2="100%">
      <stop offset="0%"   stop-color="rgba(255,255,255,0.09)"/>
      <stop offset="100%" stop-color="rgba(255,255,255,0.03)"/>
    </linearGradient>
  </defs>

  <rect width="960" height="420" fill="url(#bg)"/>
  <rect width="960" height="420" fill="url(#glow-b1)"/>
  <rect width="960" height="420" fill="url(#glow-p1)"/>

  <g stroke="rgba(255,255,255,0.035)" stroke-width="1">
    <line x1="0"   y1="0" x2="0"   y2="420"/>
    <line x1="60"  y1="0" x2="60"  y2="420"/>
    <line x1="120" y1="0" x2="120" y2="420"/>
    <line x1="180" y1="0" x2="180" y2="420"/>
    <line x1="240" y1="0" x2="240" y2="420"/>
    <line x1="300" y1="0" x2="300" y2="420"/>
    <line x1="360" y1="0" x2="360" y2="420"/>
    <line x1="420" y1="0" x2="420" y2="420"/>
    <line x1="480" y1="0" x2="480" y2="420"/>
    <line x1="540" y1="0" x2="540" y2="420"/>
    <line x1="600" y1="0" x2="600" y2="420"/>
    <line x1="660" y1="0" x2="660" y2="420"/>
    <line x1="720" y1="0" x2="720" y2="420"/>
    <line x1="780" y1="0" x2="780" y2="420"/>
    <line x1="840" y1="0" x2="840" y2="420"/>
    <line x1="900" y1="0" x2="900" y2="420"/>
    <line x1="960" y1="0" x2="960" y2="420"/>
    <line x1="0" y1="0"   x2="960" y2="0"/>
    <line x1="0" y1="60"  x2="960" y2="60"/>
    <line x1="0" y1="120" x2="960" y2="120"/>
    <line x1="0" y1="180" x2="960" y2="180"/>
    <line x1="0" y1="240" x2="960" y2="240"/>
    <line x1="0" y1="300" x2="960" y2="300"/>
    <line x1="0" y1="360" x2="960" y2="360"/>
    <line x1="0" y1="420" x2="960" y2="420"/>
  </g>

  <g fill="none" stroke="rgba(192,132,252,0.42)" stroke-width="1.4">
    <line x1="480" y1="210" x2="140" y2="90"/>
    <line x1="480" y1="210" x2="140" y2="330"/>
    <line x1="480" y1="210" x2="820" y2="90"/>
    <line x1="480" y1="210" x2="820" y2="330"/>
    <line x1="480" y1="210" x2="300" y2="360"/>
    <line x1="480" y1="210" x2="660" y2="360"/>
    <line x1="480" y1="210" x2="300" y2="60"/>
    <line x1="480" y1="210" x2="660" y2="60"/>
  </g>

  <g fill="#e9d5ff">
    <circle cx="310" cy="150" r="2.4" opacity="0.9"/>
    <circle cx="650" cy="270" r="2.4" opacity="0.9"/>
    <circle cx="420" cy="120" r="2"   opacity="0.7"/>
    <circle cx="540" cy="300" r="2"   opacity="0.7"/>
  </g>

  <circle cx="480" cy="210" r="96" fill="url(#gw-halo)"/>
  <rect x="428" y="158" width="104" height="104" rx="22" fill="url(#gw)" opacity="0.18"/>
  <rect x="434" y="164" width="92" height="92" rx="20" fill="rgba(10,0,24,0.55)" stroke="rgba(192,132,252,0.6)" stroke-width="1.2"/>
  <g stroke="#e9d5ff" stroke-width="1.6" fill="none" opacity="0.95">
    <circle cx="480" cy="210" r="9"/>
    <circle cx="480" cy="210" r="20" stroke-dasharray="2 4" opacity="0.6"/>
  </g>
  <text x="480" y="256" text-anchor="middle" font-size="13" font-weight="600" fill="#f0f6fc">AI Gateway</text>

  <rect x="90"  y="72"  width="100" height="36" rx="10" fill="url(#chip)" stroke="rgba(255,255,255,0.16)" stroke-width="1"/>
  <circle cx="106" cy="90" r="3.2" fill="#c084fc"/>
  <text x="118" y="94" font-size="12.5" font-weight="500" fill="#e6e6f0">GPT-4o</text>

  <rect x="90"  y="312" width="100" height="36" rx="10" fill="url(#chip)" stroke="rgba(255,255,255,0.16)" stroke-width="1"/>
  <circle cx="106" cy="330" r="3.2" fill="#c084fc"/>
  <text x="118" y="334" font-size="12.5" font-weight="500" fill="#e6e6f0">Claude 3.5</text>

  <rect x="770" y="72"  width="100" height="36" rx="10" fill="url(#chip)" stroke="rgba(255,255,255,0.16)" stroke-width="1"/>
  <circle cx="786" cy="90" r="3.2" fill="#c084fc"/>
  <text x="798" y="94" font-size="12.5" font-weight="500" fill="#e6e6f0">Gemini 1.5</text>

  <rect x="770" y="312" width="100" height="36" rx="10" fill="url(#chip)" stroke="rgba(255,255,255,0.16)" stroke-width="1"/>
  <circle cx="786" cy="330" r="3.2" fill="#c084fc"/>
  <text x="798" y="334" font-size="12.5" font-weight="500" fill="#e6e6f0">DeepSeek</text>

  <rect x="250" y="342" width="100" height="36" rx="10" fill="url(#chip)" stroke="rgba(255,255,255,0.16)" stroke-width="1"/>
  <circle cx="266" cy="360" r="3.2" fill="#c084fc"/>
  <text x="278" y="364" font-size="12.5" font-weight="500" fill="#e6e6f0">通义千问</text>

  <rect x="610" y="342" width="100" height="36" rx="10" fill="url(#chip)" stroke="rgba(255,255,255,0.16)" stroke-width="1"/>
  <circle cx="626" cy="360" r="3.2" fill="#c084fc"/>
  <text x="638" y="364" font-size="12.5" font-weight="500" fill="#e6e6f0">文心一言</text>

  <rect x="250" y="42"  width="100" height="36" rx="10" fill="url(#chip)" stroke="rgba(255,255,255,0.16)" stroke-width="1"/>
  <circle cx="266" cy="60" r="3.2" fill="#c084fc"/>
  <text x="278" y="64" font-size="12.5" font-weight="500" fill="#e6e6f0">智谱 GLM</text>

  <rect x="610" y="42"  width="100" height="36" rx="10" fill="url(#chip)" stroke="rgba(255,255,255,0.16)" stroke-width="1"/>
  <circle cx="626" cy="60" r="3.2" fill="#c084fc"/>
  <text x="638" y="64" font-size="12.5" font-weight="500" fill="#e6e6f0">+ 更多</text>
</svg>
