<svg width="755" height="542" viewBox="0 0 755 542" fill="none" xmlns="http://www.w3.org/2000/svg">
<path fill-rule="evenodd" clip-rule="evenodd" d="M154.338 129.87C194.342 72.504 273.275 58.4289 330.642 98.4326C388.008 138.436 402.083 217.37 362.079 274.736L230.514 463.403C190.51 520.769 111.576 534.844 54.2099 494.841C-3.15616 454.837 -17.2313 375.903 22.7724 318.537L154.338 129.87ZM318.008 184.809C295.404 137.603 230.163 132.598 200.623 175.803L68.3496 369.266C51.8286 393.429 57.8638 426.392 81.874 443.136L85.8671 445.921C109.872 462.661 142.881 456.937 159.85 433.094L322.884 204.003C324.475 201.766 324.728 198.841 323.542 196.364L318.008 184.809Z" fill="url(#paint0_linear_333_2088)"/>
<path fill-rule="evenodd" clip-rule="evenodd" d="M580.895 129.824C540.636 72.6685 461.631 58.923 404.433 99.1225C347.235 139.322 333.504 218.244 373.764 275.399L477.59 421.15L518.724 481.197C558.984 538.352 637.989 552.098 695.187 511.898C752.385 471.698 766.116 392.777 725.856 335.621L580.895 129.824ZM417.02 188.803C439.322 141.381 504.71 136.002 534.507 179.139L669.027 373.878C685.664 397.963 679.771 430.935 655.821 447.768L651.877 450.54C627.933 467.369 594.882 461.78 577.801 438.014L523.59 364.65L412.358 207.817C410.761 205.594 410.493 202.681 411.657 200.205L417.02 188.803Z" fill="url(#paint1_linear_333_2088)"/>
<path fill-rule="evenodd" clip-rule="evenodd" d="M520.295 253.542C579.352 215.264 658.258 232.109 696.536 291.166L727.982 339.683C766.26 398.74 749.416 477.646 690.358 515.924C631.301 554.202 552.395 537.357 514.117 478.3L482.671 429.783C444.393 370.726 461.238 291.82 520.295 253.542ZM633.271 340.598C609.208 309.971 563.201 308.841 537.663 338.25L522.109 356.162C520.556 357.95 520.486 360.587 521.94 362.455L582.619 440.399C599.824 462.5 631.683 466.482 653.798 449.294C676.009 432.033 679.939 399.997 662.561 377.878L633.271 340.598Z" fill="url(#paint2_linear_333_2088)"/>
<path fill-rule="evenodd" clip-rule="evenodd" d="M376.217 126.519C416.429 69.2999 495.413 55.5116 552.633 95.7233C580.572 115.358 598.146 144.239 604.145 175.314L484.762 155.025L483.862 160.31C462.682 159.462 441.024 168.626 427.18 188.676L293.714 381.972C278.124 404.553 283.654 435.482 306.104 451.261C328.551 467.035 359.521 461.769 375.488 439.458L479.052 297.504L521.952 355.347L438.527 478.331C398.315 535.549 319.332 549.337 262.112 509.127C204.892 468.915 191.104 389.929 231.316 332.709L376.217 126.519Z" fill="url(#paint3_linear_333_2088)"/>
<path fill-rule="evenodd" clip-rule="evenodd" d="M376.217 126.519C416.429 69.2999 495.413 55.5116 552.633 95.7233C580.572 115.358 598.146 144.239 604.145 175.314L484.762 155.025L483.862 160.31C462.682 159.462 441.024 168.626 427.18 188.676L293.714 381.972C278.124 404.553 283.654 435.482 306.104 451.261C328.551 467.035 359.521 461.769 375.488 439.458L479.052 297.504L521.952 355.347L438.527 478.331C398.315 535.549 319.332 549.337 262.112 509.127C204.892 468.915 191.104 389.929 231.316 332.709L376.217 126.519Z" fill="url(#paint4_linear_333_2088)"/>
<path d="M417.24 89.6576C473.673 56.5959 546.953 71.985 585.007 126.553L729.152 333.267C768.794 390.115 756.774 468.57 700.702 508.905L659.947 445.27C678.165 427.495 672.102 398.08 661.377 380.205L535.285 189.667C518.686 165.393 490.815 156.337 465.573 161.437L417.24 89.6576Z" fill="url(#paint5_linear_333_2088)"/>
<g filter="url(#filter0_f_333_2088)">
<ellipse cx="200.862" cy="131.703" rx="99.857" ry="32.8727" transform="rotate(-34.7901 200.862 131.703)" fill="#DBEAFE" fill-opacity="0.2"/>
</g>
<g filter="url(#filter1_f_333_2088)">
<ellipse cx="210.082" cy="124.88" rx="33.0784" ry="12.1072" transform="rotate(-30.9643 210.082 124.88)" fill="white" fill-opacity="0.25"/>
</g>
<g filter="url(#filter2_f_333_2088)">
<path d="M393.59 300.15L371.09 270.65L412.59 210.15L435.59 242.65L393.59 300.15Z" fill="url(#paint6_linear_333_2088)"/>
</g>
<g filter="url(#filter3_f_333_2088)">
<path d="M498.09 453.15L477.59 421.15L520.09 360.15L545.5 394.73L498.09 453.15Z" fill="url(#paint7_linear_333_2088)"/>
</g>
<defs>
<filter id="filter0_f_333_2088" x="48.0788" y="0.00062561" width="305.567" height="263.405" filterUnits="userSpaceOnUse" color-interpolation-filters="sRGB">
<feFlood flood-opacity="0" result="BackgroundImageFix"/>
<feBlend mode="normal" in="SourceGraphic" in2="BackgroundImageFix" result="shape"/>
<feGaussianBlur stdDeviation="34.32" result="effect1_foregroundBlur_333_2088"/>
</filter>
<filter id="filter1_f_333_2088" x="146.715" y="70.6214" width="126.733" height="108.517" filterUnits="userSpaceOnUse" color-interpolation-filters="sRGB">
<feFlood flood-opacity="0" result="BackgroundImageFix"/>
<feBlend mode="normal" in="SourceGraphic" in2="BackgroundImageFix" result="shape"/>
<feGaussianBlur stdDeviation="17.16" result="effect1_foregroundBlur_333_2088"/>
</filter>
<filter id="filter2_f_333_2088" x="367.09" y="206.15" width="72.5" height="98" filterUnits="userSpaceOnUse" color-interpolation-filters="sRGB">
<feFlood flood-opacity="0" result="BackgroundImageFix"/>
<feBlend mode="normal" in="SourceGraphic" in2="BackgroundImageFix" result="shape"/>
<feGaussianBlur stdDeviation="2" result="effect1_foregroundBlur_333_2088"/>
</filter>
<filter id="filter3_f_333_2088" x="469.59" y="352.15" width="83.9097" height="109" filterUnits="userSpaceOnUse" color-interpolation-filters="sRGB">
<feFlood flood-opacity="0" result="BackgroundImageFix"/>
<feBlend mode="normal" in="SourceGraphic" in2="BackgroundImageFix" result="shape"/>
<feGaussianBlur stdDeviation="4" result="effect1_foregroundBlur_333_2088"/>
</filter>
<linearGradient id="paint0_linear_333_2088" x1="311.741" y1="88.8453" x2="35.4611" y2="497.253" gradientUnits="userSpaceOnUse">
<stop stop-color="#385AFF"/>
<stop offset="0.2" stop-color="#577BFF"/>
<stop offset="0.6" stop-color="#0410FF"/>
</linearGradient>
<linearGradient id="paint1_linear_333_2088" x1="364.275" y1="198.238" x2="627.972" y2="535.084" gradientUnits="userSpaceOnUse">
<stop offset="0.025898" stop-color="#0C29D7"/>
<stop offset="0.173077" stop-color="#5955F0"/>
<stop offset="0.372994" stop-color="#8970FF"/>
<stop offset="0.549653" stop-color="#07BB81"/>
<stop offset="1" stop-color="#7322A5"/>
</linearGradient>
<linearGradient id="paint2_linear_333_2088" x1="522.354" y1="255.953" x2="650.13" y2="531.43" gradientUnits="userSpaceOnUse">
<stop offset="0.017359" stop-color="#9C67FF"/>
<stop offset="0.27641" stop-color="#9C67FF"/>
<stop offset="0.522261" stop-color="#7B35F2"/>
<stop offset="0.74903" stop-color="#8828FF"/>
<stop offset="0.908836" stop-color="#7E04FF"/>
</linearGradient>
<linearGradient id="paint3_linear_333_2088" x1="421.85" y1="104.451" x2="159.168" y2="177.905" gradientUnits="userSpaceOnUse">
<stop stop-color="#04F3B8"/>
<stop offset="0.757282" stop-color="#188DDA"/>
<stop offset="1" stop-color="#247DC6"/>
</linearGradient>
<linearGradient id="paint4_linear_333_2088" x1="604.174" y1="211.7" x2="334.964" y2="258.222" gradientUnits="userSpaceOnUse">
<stop stop-color="#9B67FE"/>
<stop offset="0.442115" stop-color="#9B67FE"/>
<stop offset="0.599173" stop-color="#9B67FE"/>
<stop offset="0.985755" stop-color="#4E0CC8"/>
</linearGradient>
<linearGradient id="paint5_linear_333_2088" x1="401.891" y1="99.7991" x2="630.772" y2="532.246" gradientUnits="userSpaceOnUse">
<stop stop-color="#9966FD"/>
<stop offset="0.315646" stop-color="#9C67FF"/>
<stop offset="0.573084" stop-color="#9C67FF"/>
<stop offset="0.86038" stop-color="#8623FF"/>
<stop offset="1" stop-color="#7E04FF"/>
</linearGradient>
<linearGradient id="paint6_linear_333_2088" x1="393.09" y1="237.15" x2="451" y2="304.73" gradientUnits="userSpaceOnUse">
<stop stop-color="#0815D5"/>
<stop offset="0.615385" stop-color="#9B67FE" stop-opacity="0.1"/>
<stop offset="1" stop-color="#9B67FE" stop-opacity="0.1"/>
</linearGradient>
<linearGradient id="paint7_linear_333_2088" x1="497.5" y1="391.73" x2="555.5" y2="448.23" gradientUnits="userSpaceOnUse">
<stop stop-color="#4103B8"/>
<stop offset="0.341247" stop-color="#772FEB" stop-opacity="0.7"/>
<stop offset="1" stop-color="#852CFC" stop-opacity="0"/>
</linearGradient>
</defs>
</svg>
